<mxfile host="65bd71144e">
    <diagram id="8jMRvOnV2NKUNKR1qoSU" name="Page-1">
        <mxGraphModel dx="280" dy="242" grid="0" gridSize="10" guides="1" tooltips="1" connect="1" arrows="1" fold="1" page="1" pageScale="1" pageWidth="1169" pageHeight="827" background="#FFFFFF" math="0" shadow="1">
            <root>
                <mxCell id="0"/>
                <mxCell id="1" parent="0"/>
                <mxCell id="17" value="" style="shape=crossbar;whiteSpace=wrap;html=1;rounded=0;direction=south;fontColor=#000033;labelBackgroundColor=none;labelBorderColor=none;strokeColor=#000000;verticalAlign=middle;" vertex="1" parent="1">
                    <mxGeometry x="520" y="100" width="20" height="520" as="geometry"/>
                </mxCell>
                <mxCell id="33" value="&lt;font&gt;router&lt;/font&gt;" style="rounded=0;whiteSpace=wrap;html=1;fillColor=#A1A1A1;fontColor=#000033;labelBackgroundColor=none;labelBorderColor=none;verticalAlign=middle;" vertex="1" parent="1">
                    <mxGeometry x="490" y="300" width="80" height="30" as="geometry"/>
                </mxCell>
                <mxCell id="3" value="" style="aspect=fixed;html=1;points=[];align=center;image;fontSize=12;image=img/lib/azure2/general/Browser.svg;fontColor=#000033;labelBackgroundColor=none;labelBorderColor=none;rounded=0;verticalAlign=middle;" vertex="1" parent="1">
                    <mxGeometry x="220" y="20" width="65" height="52" as="geometry"/>
                </mxCell>
                <mxCell id="6" value="" style="shape=crossbar;whiteSpace=wrap;html=1;rounded=0;direction=south;fontColor=#000033;labelBackgroundColor=none;labelBorderColor=none;strokeColor=#000000;verticalAlign=middle;" vertex="1" parent="1">
                    <mxGeometry x="242.5" y="100" width="20" height="520" as="geometry"/>
                </mxCell>
                <mxCell id="7" value="" style="shape=crossbar;whiteSpace=wrap;html=1;rounded=0;direction=south;fontColor=#000033;labelBackgroundColor=none;labelBorderColor=none;fillColor=#2A2A2A;strokeColor=#000033;verticalAlign=middle;" vertex="1" parent="1">
                    <mxGeometry x="75" y="100" width="20" height="520" as="geometry"/>
                </mxCell>
                <mxCell id="10" value="Navigateur" style="text;html=1;resizable=0;autosize=1;align=center;verticalAlign=middle;points=[];fillColor=none;strokeColor=none;rounded=0;fontColor=#000033;labelBackgroundColor=none;labelBorderColor=none;" vertex="1" parent="1">
                    <mxGeometry x="215" y="76" width="70" height="20" as="geometry"/>
                </mxCell>
                <mxCell id="11" value="" style="shape=crossbar;whiteSpace=wrap;html=1;rounded=0;direction=south;fontColor=#000033;labelBackgroundColor=none;labelBorderColor=none;strokeColor=#000000;verticalAlign=middle;" vertex="1" parent="1">
                    <mxGeometry x="390" y="100" width="20" height="520" as="geometry"/>
                </mxCell>
                <mxCell id="12" value="" style="aspect=fixed;perimeter=ellipsePerimeter;html=1;align=center;shadow=0;dashed=0;spacingTop=3;image;image=img/lib/active_directory/web_server.svg;fontColor=#000033;labelBackgroundColor=none;labelBorderColor=none;rounded=0;verticalAlign=middle;" vertex="1" parent="1">
                    <mxGeometry x="390" y="16" width="40" height="50" as="geometry"/>
                </mxCell>
                <mxCell id="14" value="" style="aspect=fixed;perimeter=ellipsePerimeter;html=1;align=center;shadow=0;dashed=0;spacingTop=3;image;image=img/lib/active_directory/web_server.svg;fontColor=#000033;labelBackgroundColor=none;labelBorderColor=none;rounded=0;verticalAlign=middle;" vertex="1" parent="1">
                    <mxGeometry x="510" y="10" width="40" height="50" as="geometry"/>
                </mxCell>
                <mxCell id="15" value="serveur statique (front)" style="text;html=1;resizable=0;autosize=1;align=center;verticalAlign=middle;points=[];fillColor=none;strokeColor=none;rounded=0;fontColor=#000033;labelBackgroundColor=none;labelBorderColor=none;" vertex="1" parent="1">
                    <mxGeometry x="310" y="72" width="140" height="20" as="geometry"/>
                </mxCell>
                <mxCell id="16" value="serveur back" style="text;html=1;resizable=0;autosize=1;align=center;verticalAlign=middle;points=[];fillColor=none;strokeColor=none;rounded=0;fontColor=#000033;labelBackgroundColor=none;labelBorderColor=none;" vertex="1" parent="1">
                    <mxGeometry x="490" y="72" width="80" height="20" as="geometry"/>
                </mxCell>
                <mxCell id="19" value="" style="aspect=fixed;perimeter=ellipsePerimeter;html=1;align=center;shadow=0;dashed=0;spacingTop=3;image;image=img/lib/active_directory/database_server.svg;fontColor=#000033;labelBackgroundColor=none;labelBorderColor=none;rounded=0;verticalAlign=middle;" vertex="1" parent="1">
                    <mxGeometry x="700" y="10" width="41" height="50" as="geometry"/>
                </mxCell>
                <mxCell id="20" value="base de donnÃ©es" style="text;html=1;resizable=0;autosize=1;align=center;verticalAlign=middle;points=[];fillColor=none;strokeColor=none;rounded=0;fontColor=#000033;labelBackgroundColor=none;labelBorderColor=none;" vertex="1" parent="1">
                    <mxGeometry x="660" y="72" width="110" height="20" as="geometry"/>
                </mxCell>
                <mxCell id="22" value="" style="shape=crossbar;whiteSpace=wrap;html=1;rounded=0;direction=south;fontColor=#000033;labelBackgroundColor=none;labelBorderColor=none;strokeColor=#000000;verticalAlign=middle;" vertex="1" parent="1">
                    <mxGeometry x="710.5" y="100" width="20" height="520" as="geometry"/>
                </mxCell>
                <mxCell id="23" value="" style="endArrow=classic;html=1;fontColor=#000033;labelBackgroundColor=none;labelBorderColor=none;rounded=0;strokeColor=#006EAF;fillColor=#1ba1e2;verticalAlign=middle;" edge="1" parent="1">
                    <mxGeometry width="50" height="50" relative="1" as="geometry">
                        <mxPoint x="85" y="160" as="sourcePoint"/>
                        <mxPoint x="250" y="160" as="targetPoint"/>
                    </mxGeometry>
                </mxCell>
                <mxCell id="24" value="&lt;span style=&quot;background-color: rgb(255 , 255 , 255)&quot;&gt;demande une url&amp;nbsp;&lt;br&gt;ex : http://inkable.fr&lt;/span&gt;" style="text;html=1;resizable=0;autosize=1;align=center;verticalAlign=middle;points=[];fillColor=none;strokeColor=none;rounded=0;fontColor=#000033;labelBackgroundColor=none;labelBorderColor=none;" vertex="1" parent="1">
                    <mxGeometry x="105" y="129" width="111" height="32" as="geometry"/>
                </mxCell>
                <mxCell id="25" value="" style="endArrow=classic;html=1;fontColor=#000033;labelBackgroundColor=none;labelBorderColor=none;rounded=0;fillColor=#1ba1e2;strokeColor=#006EAF;verticalAlign=middle;" edge="1" parent="1">
                    <mxGeometry width="50" height="50" relative="1" as="geometry">
                        <mxPoint x="253" y="200" as="sourcePoint"/>
                        <mxPoint x="400" y="200" as="targetPoint"/>
                    </mxGeometry>
                </mxCell>
                <mxCell id="26" value="&lt;span style=&quot;background-color: rgb(255 , 255 , 255)&quot;&gt;charge&amp;nbsp; http://inkable.fr&lt;/span&gt;" style="text;html=1;resizable=0;autosize=1;align=center;verticalAlign=middle;points=[];fillColor=none;strokeColor=none;rounded=0;fontColor=#000033;labelBackgroundColor=none;labelBorderColor=none;" vertex="1" parent="1">
                    <mxGeometry x="256.5" y="176" width="132" height="18" as="geometry"/>
                </mxCell>
                <mxCell id="28" value="" style="endArrow=classic;html=1;entryX=0.296;entryY=0.325;entryDx=0;entryDy=0;entryPerimeter=0;exitX=0.3;exitY=0.6;exitDx=0;exitDy=0;exitPerimeter=0;fontColor=#000033;labelBackgroundColor=none;labelBorderColor=none;rounded=0;fillColor=#d80073;strokeColor=#A50040;verticalAlign=middle;" edge="1" parent="1" source="11" target="6">
                    <mxGeometry width="50" height="50" relative="1" as="geometry">
                        <mxPoint x="400" y="273" as="sourcePoint"/>
                        <mxPoint x="440" y="200" as="targetPoint"/>
                    </mxGeometry>
                </mxCell>
                <mxCell id="29" value="&lt;span style=&quot;background-color: rgb(255 , 255 , 255)&quot;&gt;retourne fichiers statiques&lt;br&gt;HTML,CSS,JS&lt;/span&gt;" style="text;html=1;resizable=0;autosize=1;align=center;verticalAlign=middle;points=[];fillColor=none;strokeColor=none;rounded=0;fontColor=#000033;labelBackgroundColor=none;labelBorderColor=none;" vertex="1" parent="1">
                    <mxGeometry x="254.5" y="220" width="147" height="32" as="geometry"/>
                </mxCell>
                <mxCell id="31" value="" style="endArrow=classic;html=1;exitX=0.399;exitY=0.5;exitDx=0;exitDy=0;exitPerimeter=0;entryX=0;entryY=0.25;entryDx=0;entryDy=0;fontColor=#000033;labelBackgroundColor=none;labelBorderColor=none;rounded=0;fillColor=#1ba1e2;strokeColor=#006EAF;verticalAlign=middle;" edge="1" parent="1" source="6" target="33">
                    <mxGeometry width="50" height="50" relative="1" as="geometry">
                        <mxPoint x="390" y="250" as="sourcePoint"/>
                        <mxPoint x="480" y="310" as="targetPoint"/>
                    </mxGeometry>
                </mxCell>
                <mxCell id="32" value="GET/pros" style="edgeLabel;html=1;align=center;verticalAlign=middle;resizable=0;points=[];fontColor=#000033;labelBackgroundColor=#FFFFFF;labelBorderColor=none;rounded=0;fillColor=#E6E6E6;" vertex="1" connectable="0" parent="31">
                    <mxGeometry x="-0.1927" relative="1" as="geometry">
                        <mxPoint as="offset"/>
                    </mxGeometry>
                </mxCell>
                <mxCell id="35" value="&lt;font&gt;controller&lt;/font&gt;" style="rounded=0;whiteSpace=wrap;html=1;fillColor=#A1A1A1;fontColor=#000033;labelBackgroundColor=none;labelBorderColor=none;verticalAlign=middle;" vertex="1" parent="1">
                    <mxGeometry x="490" y="350" width="80" height="30" as="geometry"/>
                </mxCell>
                <mxCell id="37" value="&lt;font&gt;model&lt;/font&gt;" style="rounded=0;whiteSpace=wrap;html=1;fillColor=#A1A1A1;fontColor=#000033;labelBackgroundColor=none;labelBorderColor=none;verticalAlign=middle;" vertex="1" parent="1">
                    <mxGeometry x="490" y="400" width="80" height="30" as="geometry"/>
                </mxCell>
                <mxCell id="39" value="" style="endArrow=classic;html=1;fontColor=#000033;exitX=1;exitY=0.25;exitDx=0;exitDy=0;labelBackgroundColor=none;labelBorderColor=none;rounded=0;fillColor=#1ba1e2;strokeColor=#006EAF;verticalAlign=middle;" edge="1" parent="1" source="37">
                    <mxGeometry width="50" height="50" relative="1" as="geometry">
                        <mxPoint x="570" y="380" as="sourcePoint"/>
                        <mxPoint x="721" y="408" as="targetPoint"/>
                    </mxGeometry>
                </mxCell>
                <mxCell id="41" value="&lt;font style=&quot;background-color: rgb(255 , 255 , 255)&quot;&gt;requÃªte SQL&lt;/font&gt;" style="edgeLabel;html=1;align=center;verticalAlign=middle;resizable=0;points=[];fontColor=#000033;fillColor=none;labelBackgroundColor=none;labelBorderColor=none;rounded=0;" vertex="1" connectable="0" parent="39">
                    <mxGeometry x="-0.3692" y="-2" relative="1" as="geometry">
                        <mxPoint x="19" y="-4" as="offset"/>
                    </mxGeometry>
                </mxCell>
                <mxCell id="48" value="" style="endArrow=classic;html=1;fontColor=#000033;entryX=1;entryY=0.75;entryDx=0;entryDy=0;labelBackgroundColor=none;labelBorderColor=none;rounded=0;fillColor=#d80073;strokeColor=#A50040;verticalAlign=middle;" edge="1" parent="1" target="37">
                    <mxGeometry relative="1" as="geometry">
                        <mxPoint x="721" y="423" as="sourcePoint"/>
                        <mxPoint x="490" y="290" as="targetPoint"/>
                    </mxGeometry>
                </mxCell>
                <mxCell id="49" value="Retourne donnÃ©es" style="edgeLabel;resizable=0;html=1;align=center;verticalAlign=middle;fontColor=#000033;fillColor=none;labelBackgroundColor=#FFFFFF;labelBorderColor=none;rounded=0;" connectable="0" vertex="1" parent="48">
                    <mxGeometry relative="1" as="geometry"/>
                </mxCell>
                <mxCell id="58" value="" style="endArrow=classic;html=1;fontColor=#000033;exitX=0.5;exitY=1;exitDx=0;exitDy=0;entryX=0.5;entryY=0;entryDx=0;entryDy=0;labelBackgroundColor=none;labelBorderColor=none;rounded=0;fillColor=#1ba1e2;strokeColor=#006EAF;verticalAlign=middle;" edge="1" parent="1" source="33" target="35">
                    <mxGeometry width="50" height="50" relative="1" as="geometry">
                        <mxPoint x="390" y="320" as="sourcePoint"/>
                        <mxPoint x="380" y="352" as="targetPoint"/>
                    </mxGeometry>
                </mxCell>
                <mxCell id="59" value="" style="endArrow=classic;html=1;fontColor=#000033;entryX=0.5;entryY=0;entryDx=0;entryDy=0;exitX=0.5;exitY=1;exitDx=0;exitDy=0;labelBackgroundColor=none;labelBorderColor=none;rounded=0;fillColor=#1ba1e2;strokeColor=#006EAF;verticalAlign=middle;" edge="1" parent="1" source="35" target="37">
                    <mxGeometry width="50" height="50" relative="1" as="geometry">
                        <mxPoint x="390" y="330" as="sourcePoint"/>
                        <mxPoint x="440" y="280" as="targetPoint"/>
                    </mxGeometry>
                </mxCell>
                <mxCell id="64" value="&lt;font&gt;controller&lt;/font&gt;" style="rounded=0;whiteSpace=wrap;html=1;fillColor=#A1A1A1;fontColor=#000033;labelBackgroundColor=none;labelBorderColor=none;verticalAlign=middle;" vertex="1" parent="1">
                    <mxGeometry x="490" y="465" width="80" height="30" as="geometry"/>
                </mxCell>
                <mxCell id="65" value="" style="endArrow=classic;html=1;fontColor=#000033;exitX=0.5;exitY=1;exitDx=0;exitDy=0;entryX=0.5;entryY=0;entryDx=0;entryDy=0;labelBackgroundColor=none;labelBorderColor=none;rounded=0;fillColor=#d80073;strokeColor=#A50040;verticalAlign=middle;" edge="1" parent="1" source="37" target="64">
                    <mxGeometry width="50" height="50" relative="1" as="geometry">
                        <mxPoint x="390" y="390" as="sourcePoint"/>
                        <mxPoint x="380" y="420" as="targetPoint"/>
                    </mxGeometry>
                </mxCell>
                <mxCell id="66" value="" style="endArrow=classic;html=1;fontColor=#000033;exitX=0;exitY=0.5;exitDx=0;exitDy=0;labelBackgroundColor=none;labelBorderColor=none;rounded=0;fillColor=#d80073;strokeColor=#A50040;verticalAlign=middle;" edge="1" parent="1" source="64">
                    <mxGeometry width="50" height="50" relative="1" as="geometry">
                        <mxPoint x="390" y="390" as="sourcePoint"/>
                        <mxPoint x="250" y="480" as="targetPoint"/>
                    </mxGeometry>
                </mxCell>
                <mxCell id="67" value="&lt;span style=&quot;background-color: rgb(255 , 255 , 255)&quot;&gt;Retourne donnÃ©es&lt;/span&gt;" style="edgeLabel;resizable=0;html=1;align=center;verticalAlign=middle;fontColor=#000033;fillColor=none;labelBackgroundColor=none;labelBorderColor=none;rounded=0;" connectable="0" vertex="1" parent="1">
                    <mxGeometry x="370.00041664496644" y="479.99834575048" as="geometry"/>
                </mxCell>
                <mxCell id="68" value="&lt;span style=&quot;background-color: rgb(255 , 255 , 255)&quot;&gt;Retourne donnÃ©es&lt;/span&gt;" style="edgeLabel;resizable=0;html=1;align=center;verticalAlign=middle;fontColor=#000033;fillColor=none;labelBackgroundColor=none;labelBorderColor=none;rounded=0;" connectable="0" vertex="1" parent="1">
                    <mxGeometry x="540.0004166449664" y="441.99834575048" as="geometry"/>
                </mxCell>
                <mxCell id="71" value="" style="edgeStyle=elbowEdgeStyle;elbow=horizontal;endArrow=classic;html=1;fontColor=#000033;entryX=0.944;entryY=0.375;entryDx=0;entryDy=0;entryPerimeter=0;labelBackgroundColor=none;labelBorderColor=none;rounded=0;strokeColor=#000000;verticalAlign=middle;" edge="1" parent="1" target="6">
                    <mxGeometry width="50" height="50" relative="1" as="geometry">
                        <mxPoint x="252.5" y="540" as="sourcePoint"/>
                        <mxPoint x="320" y="590" as="targetPoint"/>
                        <Array as="points">
                            <mxPoint x="310" y="560"/>
                        </Array>
                    </mxGeometry>
                </mxCell>
                <mxCell id="72" value="Met Ã  jour le DOM &lt;br&gt;pour afficher les tatoueurs" style="edgeLabel;html=1;align=center;verticalAlign=middle;resizable=0;points=[];fontColor=#000033;labelBackgroundColor=#FFFFFF;labelBorderColor=none;rounded=0;" vertex="1" connectable="0" parent="71">
                    <mxGeometry x="-0.3451" y="2" relative="1" as="geometry">
                        <mxPoint x="22" y="32" as="offset"/>
                    </mxGeometry>
                </mxCell>
                <mxCell id="73" value="" style="shape=singleArrow;direction=south;whiteSpace=wrap;html=1;fontColor=#ffffff;fillColor=#6a00ff;labelBackgroundColor=none;labelBorderColor=none;rounded=0;strokeColor=#3700CC;verticalAlign=middle;" vertex="1" parent="1">
                    <mxGeometry x="20" y="155" width="30" height="60" as="geometry"/>
                </mxCell>
                <mxCell id="80" value="" style="shape=umlActor;verticalLabelPosition=bottom;verticalAlign=middle;html=1;outlineConnect=0;labelBackgroundColor=none;labelBorderColor=none;fontColor=#000033;fillColor=none;strokeColor=#000000;" vertex="1" parent="1">
                    <mxGeometry x="70" y="20" width="30" height="60" as="geometry"/>
                </mxCell>
                <mxCell id="86" value="Temps" style="text;html=1;resizable=0;autosize=1;align=center;verticalAlign=middle;points=[];fillColor=none;strokeColor=none;rounded=0;labelBackgroundColor=none;labelBorderColor=none;fontColor=#000033;" vertex="1" parent="1">
                    <mxGeometry x="12.5" y="125" width="45" height="18" as="geometry"/>
                </mxCell>
                <mxCell id="90" value="Utilisateur" style="text;html=1;resizable=0;autosize=1;align=center;verticalAlign=middle;points=[];fillColor=none;strokeColor=none;rounded=0;labelBackgroundColor=#FFFFFF;labelBorderColor=none;fontFamily=Helvetica;fontSize=12;fontColor=#000033;" vertex="1" parent="1">
                    <mxGeometry x="53.5" y="80" width="63" height="18" as="geometry"/>
                </mxCell>
            </root>
        </mxGraphModel>
    </diagram>
</mxfile>